#!OML:ASF F:\VICON\USERDATA\INSTALL\Justin_Nancy\Justin_Nancy.ASF
:FULLY-SPECIFIED
:DEGREES
235
root -16.9456 17.3838 7.5226 75.6078 -84.4624 -75.5761
lowerback 7.49936 1.3397 3.16779
upperback 0.036947 2.15073 4.05979
thorax -4.21224 1.00576 2.2018
lowerneck -12.946 -4.80503 -7.5407
upperneck 23.8033 -6.37671 3.8733
head 10.0815 -3.33292 1.79524
rclavicle -9.14409e-015 -3.02153e-014
rhumerus -29.8499 -15.8015 -77.0669
rradius 32.2161
rwrist 8.04978
rhand -16.3744 15.2929
rfingers 7.12502
rthumb 9.839 -14.4572
lclavicle -9.14409e-015 -3.02153e-014
lhumerus -38.2011 14.1728 83.9179
lradius 20.974
lwrist -2.80413
lhand -23.532 25.3257
lfingers 7.12502
lthumb 2.92938 55.2853
rfemur -2.4556 6.75736 32.6592
rtibia 22.4087
rfoot -14.1869 -9.08446
rtoes 12.0234
lfemur -31.2228 1.79786 -12.6361
ltibia 56.6965
lfoot -8.19675 4.70211
ltoes -3.48135
236
root -17.1583 17.3526 7.55437 75.4129 -83.8398 -75.4562
lowerback 7.62531 1.25791 3.7361
upperback 0.0317852 2.09765 4.28747
thorax -4.27645 0.963975 2.12518
lowerneck -12.7549 -4.74859 -7.6537
upperneck 23.4332 -6.2215 3.73249
head 9.90242 -3.28335 1.7903
rclavicle -1.16289e-014 -7.95139e-016
rhumerus -29.2708 -13.9134 -77.8321
rradius 33.1834
rwrist 5.57888
rhand -17.2882 14.3487
rfingers 7.12502
rthumb 8.95722 -15.4411
lclavicle -1.16289e-014 -7.95139e-016
lhumerus -38.48 14.1914 83.9086
lradius 21.159
lwrist -2.46425
lhand -23.2047 25.2882
lfingers 7.12502
lthumb 3.24542 55.2432
rfemur -1.06899 6.87515 33.3589
rtibia 21.4935
rfoot -14.8022 -10.0228
rtoes 10.3423
lfemur -31.9714 1.83106 -11.9687
ltibia 54.6896
lfoot -8.42973 5.11044
ltoes -6.03848
237
root -17.3745 17.3195 7.59262 77.216 -83.5618 -76.9359
lowerback 7.38139 1.32609 4.032
upperback -0.0886292 2.20529 4.41219
thorax -4.26026 1.01002 2.08248
lowerneck -12.7676 -4.77035 -8.01889
upperneck 23.4264 -6.20126 3.87824
head 9.92 -3.28895 1.90415
rclavicle 1.82385e-014 1.11319e-014
rhumerus -28.6983 -11.794 -78.1785
rradius 34.1187
rwrist 3.26727
rhand -16.9647 13.9947
rfingers 7.12502
rthumb 9.26941 -15.7815
lclavicle 1.82385e-014 1.11319e-014
lhumerus -38.7421 13.9861 84.0409
lradius 21.2575
lwrist -2.33175
lhand -23.2623 25.4222
lfingers 7.12502
lthumb 3.18981 55.3781
rfemur -0.411513 6.53542 33.5612
rtibia 21.136
rfoot -15.6808 -10.1442
rtoes 8.1024
lfemur -32.8065 2.19903 -11.7106
ltibia 52.3397
lfoot -8.54748 5.0996
ltoes -11.7688
238
root -17.5937 17.3533 7.61415 83.2748 -83.5049 -82.444
lowerback 6.84457 1.68401 3.83974
upperback -0.198416 2.64002 4.54955
thorax -4.0915 1.23259 2.29927
lowerneck -13.0863 -4.87654 -8.14709
upperneck 23.721 -6.29428 3.82431
head 10.0966 -3.34696 1.88651
rclavicle 4.62174e-015 -2.46493e-014
rhumerus -28.1154 -10.2351 -78.1048
rradius 34.8841
rwrist 2.10868
rhand -16.5848 14.1827
rfingers 7.12502
rthumb 9.63594 -15.5769
lclavicle 4.62174e-015 -2.46493e-014
lhumerus -38.5635 13.7983 84.1601
lradius 20.8759
lwrist -2.72359
lhand -23.3631 25.5433
lfingers 7.12502
lthumb 3.09241 55.5006
rfemur 0.144342 6.61359 33.5538
rtibia 20.5629
rfoot -16.1302 -9.0729
rtoes 10.3889
lfemur -33.3572 0.739178 -10.1824
ltibia 49.8574
lfoot -10.3839 4.01429
ltoes 22.0496
239
root -17.8107 17.2684 7.63042 86.9569 -83.2649 -85.9078
lowerback 6.58873 1.81024 3.74954
upperback -0.210279 2.7863 4.76868
thorax -3.97756 1.30801 2.57091
lowerneck -12.8286 -4.78311 -8.2476
upperneck 23.3406 -6.10909 3.71906
head 9.89926 -3.27925 1.89719
rclavicle -1.59028e-015 7.95139e-016
rhumerus -27.4895 -8.75015 -78.1398
rradius 35.6429
rwrist 1.53916
rhand -16.5316 13.9187
rfingers 7.12502
rthumb 9.68731 -15.8385
lclavicle -1.59028e-015 7.95139e-016
lhumerus -38.3937 13.4318 84.2935
lradius 20.7152
lwrist -2.35976
lhand -22.7037 25.416
lfingers 7.12502
lthumb 3.72925 55.3631
rfemur 1.03299 7.32941 33.8954
rtibia 20.1507
rfoot -16.6615 -8.27309
rtoes 15.0442
lfemur -34.0614 3.20524 -11.2676
ltibia 46.9823
lfoot -8.22851 6.06641
ltoes -8.98856
240
root -18.026 17.253 7.663 86.5605 -83.1593 -85.7491
lowerback 6.88802 1.75012 3.77137
upperback -0.113278 2.72176 4.91392
thorax -4.05028 1.27342 2.71001
lowerneck -12.6418 -4.66094 -8.84797
upperneck 22.9711 -5.8744 4.05829
head 9.74848 -3.18079 2.15042
rclavicle 1.11319e-014 -3.97569e-015
rhumerus -27.0065 -5.96151 -78.2711
rradius 36.8439
rwrist -0.200822
rhand -16.4914 13.2417
rfingers 7.12502
rthumb 9.72607 -16.5137
lclavicle 1.11319e-014 -3.97569e-015
lhumerus -38.6698 14.3191 83.9953
lradius 20.8091
lwrist -3.22369
lhand -21.7706 25.4056
lfingers 7.12502
lthumb 4.63024 55.335
rfemur 2.47864 7.95477 34.1151
rtibia 19.5608
rfoot -17.2289 -8.32211
rtoes 16.827
lfemur -33.969 2.58466 -10.9069
ltibia 44.044
lfoot -8.48827 5.86757
ltoes -5.54741
